<?xml version="1.0" standalone="no"?>
<!DOCTYPE svg PUBLIC "-//W3C//DTD SVG 20010904//EN"
 "http://www.w3.org/TR/2001/REC-SVG-20010904/DTD/svg10.dtd">
<svg version="1.0" xmlns="http://www.w3.org/2000/svg"
 width="400.000000pt" height="400.000000pt" viewBox="0 0 400.000000 400.000000"
 preserveAspectRatio="xMidYMid meet">
<metadata>
Created by potrace 1.14, written by Peter Selinger 2001-2017
</metadata>
<g transform="translate(0.000000,400.000000) scale(0.100000,-0.100000)"
fill="#000000" stroke="none">
<path d="M0 2000 l0 -2000 2000 0 2000 0 0 2000 0 2000 -2000 0 -2000 0 0
-2000z m1570 1326 c428 -67 676 -221 762 -474 26 -74 28 -244 6 -318 -51 -166
-206 -294 -448 -372 -64 -20 -231 -52 -276 -52 -13 0 -26 -5 -29 -10 -4 -6 26
-50 65 -98 78 -95 198 -243 276 -338 129 -159 279 -342 387 -472 74 -89 117
-148 113 -157 -4 -13 -44 -15 -250 -15 l-245 0 -28 37 c-15 21 -30 40 -33 43
-3 3 -41 50 -85 105 -115 144 -476 592 -645 801 -79 98 -152 188 -162 199 -10
11 -17 26 -16 35 3 13 38 16 233 21 127 3 257 11 290 18 251 53 362 145 401
337 32 155 -3 277 -112 391 -28 29 -126 83 -194 107 -132 45 -239 56 -575 56
l-305 0 0 91 0 92 383 -6 c280 -4 410 -9 487 -21z m1550 -994 c0 -688 -4
-1046 -11 -1101 -14 -107 -57 -227 -110 -307 -49 -75 -153 -175 -232 -222
-137 -82 -336 -132 -526 -132 -115 0 -269 21 -280 38 -9 15 -4 153 6 163 4 4
37 4 73 -1 89 -13 238 -12 302 1 194 41 318 192 348 421 5 42 10 518 10 1116
l0 1042 210 0 210 0 0 -1018z"/>
</g>
</svg>
